<svg width="19" height="18" viewBox="0 0 19 18" fill="none" xmlns="http://www.w3.org/2000/svg">
<path d="M1.81802 16.682C3.13604 18 5.25735 18 9.5 18C13.7426 18 15.864 18 17.182 16.682C18.5 15.364 18.5 13.2426 18.5 9C18.5 4.75735 18.5 2.63604 17.182 1.31802C15.864 -1.19209e-07 13.7426 0 9.5 0C5.25735 0 3.13604 -1.19209e-07 1.81802 1.31802C0.5 2.63604 0.5 4.75735 0.5 9C0.5 13.2426 0.5 15.364 1.81802 16.682Z" fill="#171C21"/>
<path fill-rule="evenodd" clip-rule="evenodd" d="M5.9 3.375C6.27279 3.375 6.575 3.67721 6.575 4.05V5.17502H7.7C8.07278 5.17502 8.375 5.47722 8.375 5.85002C8.375 6.22281 8.07278 6.52502 7.7 6.52502H6.575V7.65C6.575 8.02278 6.27279 8.325 5.9 8.325C5.52721 8.325 5.225 8.02278 5.225 7.65V6.52502H4.1C3.72721 6.52502 3.425 6.22281 3.425 5.85002C3.425 5.47722 3.72721 5.17502 4.1 5.17502H5.225V4.05C5.225 3.67721 5.52721 3.375 5.9 3.375ZM10.625 5.85C10.625 5.47721 10.9272 5.175 11.3 5.175H14.9C15.2728 5.175 15.575 5.47721 15.575 5.85C15.575 6.22279 15.2728 6.525 14.9 6.525H11.3C10.9272 6.525 10.625 6.22279 10.625 5.85ZM10.625 11.25C10.625 10.8772 10.9272 10.575 11.3 10.575H14.9C15.2728 10.575 15.575 10.8772 15.575 11.25C15.575 11.6228 15.2728 11.925 14.9 11.925H11.3C10.9272 11.925 10.625 11.6228 10.625 11.25ZM4.0727 10.7727C4.3363 10.5091 4.7637 10.5091 5.0273 10.7727L5.90001 11.6455L6.7727 10.7727C7.0363 10.5091 7.4637 10.5091 7.72727 10.7727C7.99088 11.0363 7.99088 11.4638 7.72727 11.7274L6.8546 12.6L7.72727 13.4727C7.99088 13.7363 7.99088 14.1637 7.72727 14.4273C7.46368 14.6909 7.0363 14.6909 6.77269 14.4273L5.90001 13.5546L5.02731 14.4274C4.76371 14.6909 4.33632 14.6909 4.07271 14.4274C3.80911 14.1638 3.80911 13.7363 4.07271 13.4727L4.94542 12.6L4.0727 11.7274C3.8091 11.4638 3.8091 11.0363 4.0727 10.7727ZM10.625 13.95C10.625 13.5772 10.9272 13.275 11.3 13.275H14.9C15.2728 13.275 15.575 13.5772 15.575 13.95C15.575 14.3228 15.2728 14.625 14.9 14.625H11.3C10.9272 14.625 10.625 14.3228 10.625 13.95Z" fill="#171C21"/>
<path fill-rule="evenodd" clip-rule="evenodd" d="M5.9 3.375C6.27279 3.375 6.575 3.67721 6.575 4.05V5.17502H7.7C8.07278 5.17502 8.375 5.47722 8.375 5.85002C8.375 6.22281 8.07278 6.52502 7.7 6.52502H6.575V7.65C6.575 8.02278 6.27279 8.325 5.9 8.325C5.52721 8.325 5.225 8.02278 5.225 7.65V6.52502H4.1C3.72721 6.52502 3.425 6.22281 3.425 5.85002C3.425 5.47722 3.72721 5.17502 4.1 5.17502H5.225V4.05C5.225 3.67721 5.52721 3.375 5.9 3.375ZM10.625 5.85C10.625 5.47721 10.9272 5.175 11.3 5.175H14.9C15.2728 5.175 15.575 5.47721 15.575 5.85C15.575 6.22279 15.2728 6.525 14.9 6.525H11.3C10.9272 6.525 10.625 6.22279 10.625 5.85ZM10.625 11.25C10.625 10.8772 10.9272 10.575 11.3 10.575H14.9C15.2728 10.575 15.575 10.8772 15.575 11.25C15.575 11.6228 15.2728 11.925 14.9 11.925H11.3C10.9272 11.925 10.625 11.6228 10.625 11.25ZM4.0727 10.7727C4.3363 10.5091 4.7637 10.5091 5.0273 10.7727L5.90001 11.6455L6.7727 10.7727C7.0363 10.5091 7.4637 10.5091 7.72727 10.7727C7.99088 11.0363 7.99088 11.4638 7.72727 11.7274L6.8546 12.6L7.72727 13.4727C7.99088 13.7363 7.99088 14.1637 7.72727 14.4273C7.46368 14.6909 7.0363 14.6909 6.77269 14.4273L5.90001 13.5546L5.02731 14.4274C4.76371 14.6909 4.33632 14.6909 4.07271 14.4274C3.80911 14.1638 3.80911 13.7363 4.07271 13.4727L4.94542 12.6L4.0727 11.7274C3.8091 11.4638 3.8091 11.0363 4.0727 10.7727ZM10.625 13.95C10.625 13.5772 10.9272 13.275 11.3 13.275H14.9C15.2728 13.275 15.575 13.5772 15.575 13.95C15.575 14.3228 15.2728 14.625 14.9 14.625H11.3C10.9272 14.625 10.625 14.3228 10.625 13.95Z" fill="#A9A9A9" fill-opacity="0.2"/>
</svg>
