<svg width="17" height="18" viewBox="0 0 17 18" fill="none" xmlns="http://www.w3.org/2000/svg">
<path d="M8.48291 1.57001C11.5659 1.57001 13.4999 2.12902 14.7539 3.38202C16.0079 4.63502 16.5669 6.56901 16.5669 9.65201C16.5669 12.735 16.0079 14.669 14.7539 15.922C13.4999 17.175 11.5659 17.734 8.48291 17.734C5.39991 17.734 3.46591 17.175 2.21291 15.922C0.959906 14.669 0.399902 12.735 0.399902 9.65201C0.399902 6.56901 0.958906 4.63502 2.21291 3.38202C3.46691 2.12902 5.39991 1.57001 8.48291 1.57001ZM8.48291 16.536C13.7579 16.536 15.3669 14.928 15.3669 9.65302C15.3669 4.37802 13.7589 2.77002 8.48291 2.77002C3.20691 2.77002 1.59991 4.37802 1.59991 9.65302C1.59991 14.928 3.20791 16.537 8.48291 16.537V16.536Z" fill="#9397A0"/>
<path d="M15.7518 7.46902H1.22182C1.06269 7.46902 0.910083 7.4058 0.797562 7.29327C0.68504 7.18075 0.621826 7.02815 0.621826 6.86902C0.621826 6.70989 0.68504 6.55729 0.797562 6.44476C0.910083 6.33224 1.06269 6.26901 1.22182 6.26901H15.7518C15.9109 6.26901 16.0636 6.33224 16.1761 6.44476C16.2886 6.55729 16.3518 6.70989 16.3518 6.86902C16.3518 7.02815 16.2886 7.18075 16.1761 7.29327C16.0636 7.4058 15.9109 7.46902 15.7518 7.46902Z" fill="#9397A0"/>
<path d="M12.043 10.646H12.036C11.8769 10.646 11.7243 10.5828 11.6118 10.4703C11.4992 10.3578 11.436 10.2051 11.436 10.046C11.436 9.88686 11.4992 9.73426 11.6118 9.62173C11.7243 9.50921 11.8769 9.44601 12.036 9.44601H12.043C12.2022 9.44601 12.3548 9.50921 12.4673 9.62173C12.5798 9.73426 12.643 9.88686 12.643 10.046C12.643 10.2051 12.5798 10.3578 12.4673 10.4703C12.3548 10.5828 12.2022 10.646 12.043 10.646Z" fill="#9397A0"/>
<path d="M8.49396 10.646H8.48697C8.32784 10.646 8.17522 10.5828 8.0627 10.4703C7.95018 10.3578 7.88696 10.2051 7.88696 10.046C7.88696 9.88686 7.95018 9.73426 8.0627 9.62173C8.17522 9.50921 8.32784 9.44601 8.48697 9.44601H8.49396C8.65309 9.44601 8.80571 9.50921 8.91823 9.62173C9.03075 9.73426 9.09396 9.88686 9.09396 10.046C9.09396 10.2051 9.03075 10.3578 8.91823 10.4703C8.80571 10.5828 8.65309 10.646 8.49396 10.646Z" fill="#9397A0"/>
<path d="M4.93684 10.646H4.92984C4.77071 10.646 4.61809 10.5828 4.50557 10.4703C4.39305 10.3578 4.32983 10.2051 4.32983 10.046C4.32983 9.88686 4.39305 9.73426 4.50557 9.62173C4.61809 9.50921 4.77071 9.44601 4.92984 9.44601H4.93684C5.09597 9.44601 5.24858 9.50921 5.3611 9.62173C5.47362 9.73426 5.53683 9.88686 5.53683 10.046C5.53683 10.2051 5.47362 10.3578 5.3611 10.4703C5.24858 10.5828 5.09597 10.646 4.93684 10.646Z" fill="#9397A0"/>
<path d="M12.043 13.754H12.036C11.8769 13.754 11.7243 13.6908 11.6118 13.5783C11.4992 13.4658 11.436 13.3132 11.436 13.154C11.436 12.9949 11.4992 12.8423 11.6118 12.7297C11.7243 12.6172 11.8769 12.554 12.036 12.554H12.043C12.2022 12.554 12.3548 12.6172 12.4673 12.7297C12.5798 12.8423 12.643 12.9949 12.643 13.154C12.643 13.3132 12.5798 13.4658 12.4673 13.5783C12.3548 13.6908 12.2022 13.754 12.043 13.754Z" fill="#9397A0"/>
<path d="M8.49396 13.754H8.48697C8.32784 13.754 8.17522 13.6908 8.0627 13.5783C7.95018 13.4658 7.88696 13.3132 7.88696 13.154C7.88696 12.9949 7.95018 12.8423 8.0627 12.7297C8.17522 12.6172 8.32784 12.554 8.48697 12.554H8.49396C8.65309 12.554 8.80571 12.6172 8.91823 12.7297C9.03075 12.8423 9.09396 12.9949 9.09396 13.154C9.09396 13.3132 9.03075 13.4658 8.91823 13.5783C8.80571 13.6908 8.65309 13.754 8.49396 13.754Z" fill="#9397A0"/>
<path d="M4.93684 13.754H4.92984C4.77071 13.754 4.61809 13.6908 4.50557 13.5783C4.39305 13.4658 4.32983 13.3132 4.32983 13.154C4.32983 12.9949 4.39305 12.8423 4.50557 12.7297C4.61809 12.6172 4.77071 12.554 4.92984 12.554H4.93684C5.09597 12.554 5.24858 12.6172 5.3611 12.7297C5.47362 12.8423 5.53683 12.9949 5.53683 13.154C5.53683 13.3132 5.47362 13.4658 5.3611 13.5783C5.24858 13.6908 5.09597 13.754 4.93684 13.754Z" fill="#9397A0"/>
<path d="M11.7179 4.23203C11.5588 4.23203 11.4062 4.1688 11.2937 4.05627C11.1811 3.94375 11.1179 3.79115 11.1179 3.63202V1C11.1179 0.84087 11.1811 0.688266 11.2937 0.575745C11.4062 0.463223 11.5588 0.400024 11.7179 0.400024C11.8771 0.400024 12.0297 0.463223 12.1422 0.575745C12.2547 0.688266 12.3179 0.84087 12.3179 1V3.63202C12.3179 3.79115 12.2547 3.94375 12.1422 4.05627C12.0297 4.1688 11.8771 4.23203 11.7179 4.23203Z" fill="#9397A0"/>
<path d="M5.256 4.23203C5.09687 4.23203 4.94426 4.1688 4.83174 4.05627C4.71922 3.94375 4.65601 3.79115 4.65601 3.63202V1C4.65601 0.921207 4.67152 0.843212 4.70168 0.770416C4.73183 0.697621 4.77603 0.63146 4.83174 0.575745C4.88746 0.520029 4.9536 0.475832 5.0264 0.445679C5.09919 0.415526 5.1772 0.400024 5.256 0.400024C5.33479 0.400024 5.41282 0.415526 5.48561 0.445679C5.55841 0.475832 5.62455 0.520029 5.68027 0.575745C5.73598 0.63146 5.78018 0.697621 5.81033 0.770416C5.84049 0.843212 5.856 0.921207 5.856 1V3.63202C5.856 3.79115 5.79279 3.94375 5.68027 4.05627C5.56775 4.1688 5.41513 4.23203 5.256 4.23203Z" fill="#9397A0"/>
</svg>
