<svg width="30" height="30" viewBox="0 0 30 30" fill="none" xmlns="http://www.w3.org/2000/svg">
<g opacity="0.5">
<path d="M24.3329 14.3331C24.3329 9.1786 20.1543 5 14.9998 5C9.84521 5 5.66661 9.1786 5.66661 14.3331M20.333 18.9997V21.6663C20.333 22.2859 20.333 22.5956 20.3842 22.8532C20.5946 23.9111 21.4216 24.7384 22.4795 24.9488C22.7371 25 23.0467 25 23.6663 25C24.2858 25 24.5956 25 24.8532 24.9488C25.911 24.7384 26.7377 23.9111 26.9481 22.8532C26.9994 22.5956 26.9995 22.2859 26.9995 21.6663V18.9997C26.9995 18.3801 26.9994 18.0699 26.9481 17.8123C26.7377 16.7544 25.911 15.928 24.8532 15.7177C24.5956 15.6665 24.2858 15.6665 23.6663 15.6665C23.0467 15.6665 22.7371 15.6665 22.4795 15.7177C21.4216 15.928 20.5946 16.7544 20.3842 17.8123C20.333 18.0699 20.333 18.3801 20.333 18.9997ZM9.66653 18.9997V21.6663C9.66653 22.2859 9.66635 22.5956 9.61511 22.8532C9.40469 23.9111 8.57792 24.7384 7.5201 24.9488C7.2625 25 6.95284 25 6.33332 25C5.7138 25 5.40403 25 5.14644 24.9488C4.08862 24.7384 3.26165 23.9111 3.05124 22.8532C3 22.5956 3 22.2859 3 21.6663V18.9997C3 18.3801 3 18.0699 3.05124 17.8123C3.26165 16.7544 4.08862 15.928 5.14644 15.7177C5.40403 15.6665 5.7138 15.6665 6.33332 15.6665C6.95285 15.6665 7.2625 15.6665 7.5201 15.7177C8.57792 15.928 9.40469 16.7544 9.61511 17.8123C9.66635 18.0699 9.66653 18.3801 9.66653 18.9997Z" stroke="black" stroke-width="2" stroke-linecap="round" stroke-linejoin="round"/>
</g>
</svg>
