<svg width="19" height="18" viewBox="0 0 19 18" fill="none" xmlns="http://www.w3.org/2000/svg">
<path fill-rule="evenodd" clip-rule="evenodd" d="M15.8 9.42857H13.1C11.6087 9.42857 10.4 10.5797 10.4 12V14.5714C10.4 15.9917 11.6087 17.1429 13.1 17.1429H15.8C17.2913 17.1429 18.5 15.9917 18.5 14.5714V12C18.5 10.5797 17.2913 9.42857 15.8 9.42857ZM5.9 9.42857H3.2C1.7087 9.42857 0.5 10.5797 0.5 12V14.5714C0.5 15.9917 1.7087 17.1429 3.2 17.1429H5.9C7.3913 17.1429 8.6 15.9917 8.6 14.5714V12C8.6 10.5797 7.3913 9.42857 5.9 9.42857ZM15.8 0H13.1C11.6087 0 10.4 1.15114 10.4 2.57143V5.14286C10.4 6.56314 11.6087 7.71429 13.1 7.71429H15.8C17.2913 7.71429 18.5 6.56314 18.5 5.14286V2.57143C18.5 1.15114 17.2913 0 15.8 0ZM8.6 2.57143V5.14286C8.6 6.56314 7.3913 7.71429 5.9 7.71429H3.2C1.7087 7.71429 0.5 6.56314 0.5 5.14286V2.57143C0.5 1.15114 1.7087 0 3.2 0H5.9C7.3913 0 8.6 1.15114 8.6 2.57143Z" fill="#171C21"/>
</svg>
