<svg width="19" height="18" viewBox="0 0 19 18" fill="none" xmlns="http://www.w3.org/2000/svg">
<path fill-rule="evenodd" clip-rule="evenodd" d="M0.501957 5.625H18.4981C18.4845 3.17809 18.3759 1.85294 17.5115 0.988515C16.5229 2.57492e-07 14.9319 0 11.75 0H7.25C4.06802 0 2.47703 2.57492e-07 1.48852 0.988515C0.624088 1.85294 0.51557 3.17809 0.501957 5.625ZM18.5 7.875H0.5V11.25C0.5 14.4319 0.5 16.0229 1.48852 17.0115C2.47703 18 4.06802 18 7.25 18H11.75C14.9319 18 16.5229 18 17.5115 17.0115C18.5 16.0229 18.5 14.4319 18.5 11.25V7.875Z" fill="#171C21"/>
</svg>
