<svg width="24" height="26" viewBox="0 0 24 26" fill="none" xmlns="http://www.w3.org/2000/svg">
<g id="Settings">
<path d="M6.8117 3.16253C9.24616 1.72084 10.4634 1 11.8 1C13.1366 1 14.3538 1.72084 16.7883 3.16253L17.6117 3.65015C20.0462 5.09184 21.2634 5.81268 21.9317 7C22.6 8.18732 22.6 9.62901 22.6 12.5124V13.4876C22.6 16.371 22.6 17.8127 21.9317 19C21.2634 20.1873 20.0462 20.9081 17.6117 22.3498L16.7883 22.8375C14.3538 24.2792 13.1366 25 11.8 25C10.4634 25 9.24616 24.2792 6.8117 22.8375L5.9883 22.3498C3.55384 20.9081 2.33661 20.1873 1.6683 19C1 17.8127 1 16.371 1 13.4876V12.5124C1 9.62901 1 8.18732 1.6683 7C2.33661 5.81268 3.55384 5.09184 5.9883 3.65015L6.8117 3.16253Z" stroke="white" stroke-width="2"/>
<path d="M11.8 16.6C13.7882 16.6 15.4 14.9882 15.4 13C15.4 11.0118 13.7882 9.4 11.8 9.4C9.81178 9.4 8.2 11.0118 8.2 13C8.2 14.9882 9.81178 16.6 11.8 16.6Z" stroke="white" stroke-width="2"/>
</g>
</svg>
