<svg width="20" height="26" viewBox="0 0 20 26" fill="none" xmlns="http://www.w3.org/2000/svg">
<g opacity="0.5">
<path d="M11.5394 5.90173H2.90686V7.31113H11.5394V5.90173Z" fill="black"/>
<path d="M14.7171 6.20389L13.9612 5.40063L12.9348 6.36642L14.7828 8.3305L17.4139 5.16288L16.3297 4.26245L14.7171 6.20389Z" fill="black"/>
<path d="M11.5394 10.3063H2.90686V11.7157H11.5394V10.3063Z" fill="black"/>
<path d="M14.7171 10.6083L13.9612 9.80505L12.9348 10.7708L14.7828 12.7349L17.4139 9.5673L16.3297 8.66687L14.7171 10.6083Z" fill="black"/>
<path d="M11.5394 14.7105H2.90686V16.1199H11.5394V14.7105Z" fill="black"/>
<path d="M14.7171 15.0126L13.9612 14.2093L12.9348 15.1751L14.7828 17.1392L17.4139 13.9716L16.3297 13.0712L14.7171 15.0126Z" fill="black"/>
<path d="M11.5394 19.115H2.90686V20.5244H11.5394V19.115Z" fill="black"/>
<path d="M14.7171 19.4169L13.9612 18.6136L12.9348 19.5794L14.7828 21.5435L17.4139 18.3759L16.3297 17.4755L14.7171 19.4169Z" fill="black"/>
<path d="M20 2.00671C20 0.898396 19.1085 0 18.0087 0H1.99134C0.891515 0 0 0.898396 0 2.00671V23.9933C0 25.1016 0.891515 26 1.99134 26H18.0087C19.1085 26 20 25.1016 20 23.9933V2.00671ZM18.6147 23.9933C18.6147 24.3306 18.3434 24.604 18.0087 24.604H1.99134C1.65662 24.604 1.38528 24.3306 1.38528 23.9933V2.00671C1.38528 1.66941 1.65662 1.39597 1.99134 1.39597H18.0087C18.3434 1.39597 18.6147 1.66941 18.6147 2.00671V23.9933Z" fill="black"/>
</g>
</svg>
