<svg width="17" height="17" viewBox="0 0 17 17" fill="none" xmlns="http://www.w3.org/2000/svg">
<path d="M8.3429 0.399994C9.96332 0.399994 11.5474 0.880503 12.8947 1.78076C14.242 2.68102 15.2922 3.9606 15.9123 5.45767C16.5324 6.95475 16.6946 8.60209 16.3785 10.1914C16.0624 11.7807 15.282 13.2405 14.1362 14.3863C12.9904 15.5321 11.5306 16.3124 9.94128 16.6286C8.352 16.9447 6.70466 16.7825 5.20758 16.1624C3.71051 15.5422 2.43093 14.4921 1.53067 13.1448C0.630412 11.7974 0.149902 10.2134 0.149902 8.59299C0.151756 6.42064 1.01555 4.33781 2.55164 2.80173C4.08772 1.26564 6.17055 0.401848 8.3429 0.399994ZM8.3429 15.587C9.72598 15.587 11.078 15.1769 12.228 14.4085C13.378 13.6401 14.2743 12.5479 14.8036 11.2701C15.3329 9.99231 15.4714 8.58625 15.2015 7.22974C14.9317 5.87323 14.2657 4.62719 13.2877 3.6492C12.3097 2.67121 11.0637 2.00521 9.70718 1.73538C8.35067 1.46556 6.94461 1.60402 5.66681 2.1333C4.38901 2.66258 3.29684 3.5589 2.52844 4.70889C1.76004 5.85889 1.34991 7.21091 1.34991 8.59399C1.35177 10.4481 2.08911 12.2257 3.40015 13.5367C4.71119 14.8478 6.48881 15.5852 8.3429 15.587Z" fill="#9397A0"/>
<path d="M11.7838 9.823H11.7738L8.05484 9.76199C7.89745 9.75937 7.74739 9.695 7.63702 9.58276C7.52666 9.47052 7.46482 9.31943 7.46484 9.16202V5.18301C7.46484 5.02388 7.52804 4.87125 7.64056 4.75873C7.75309 4.64621 7.90572 4.58301 8.06485 4.58301C8.22398 4.58301 8.37658 4.64621 8.48911 4.75873C8.60163 4.87125 8.66483 5.02388 8.66483 5.18301V8.57199L11.7928 8.62302C11.952 8.62434 12.1041 8.68882 12.2156 8.80228C12.3272 8.91574 12.3892 9.06887 12.3878 9.228C12.3865 9.38713 12.322 9.53923 12.2086 9.65082C12.0951 9.7624 11.942 9.82432 11.7828 9.823H11.7838Z" fill="#9397A0"/>
</svg>
